<svg xmlns="http://www.w3.org/2000/svg" width="512" height="512" viewBox="0 0 512 512">
  <defs>
    <linearGradient id="bg" x1="0" y1="0" x2="0" y2="1"><stop offset="0" stop-color="#0b1830"/><stop offset="1" stop-color="#21406a"/></linearGradient>
    <radialGradient id="bd" cx="0.4" cy="0.32" r="0.85"><stop offset="0" stop-color="#a7ecff"/><stop offset="1" stop-color="#5fc8f2"/></radialGradient>
  </defs>
  <rect width="512" height="512" fill="url(#bg)"/>
  <!-- snow ground -->
  <path d="M0 392 Q256 352 512 392 L512 512 L0 512 Z" fill="#e7f0ff"/>
  <g fill="#ffffff" opacity=".8"><circle cx="90" cy="120" r="6"/><circle cx="430" cy="150" r="5"/><circle cx="150" cy="250" r="4"/><circle cx="380" cy="300" r="5"/></g>
  <!-- snowballs -->
  <circle cx="150" cy="360" r="20" fill="#fff" stroke="#cfe2f7" stroke-width="2"/>
  <circle cx="372" cy="350" r="16" fill="#fff" stroke="#cfe2f7" stroke-width="2"/>
  <!-- cute dino -->
  <g transform="translate(256,250)">
    <ellipse cx="0" cy="118" rx="70" ry="22" fill="#0b1830" opacity=".25"/>
    <ellipse cx="0" cy="30" rx="92" ry="104" fill="url(#bd)" stroke="#2c93cf" stroke-width="5"/>
    <ellipse cx="0" cy="56" rx="54" ry="64" fill="#e6faff"/>
    <g fill="#2c93cf"><circle cx="-18" cy="-78" r="6"/><circle cx="0" cy="-86" r="6"/><circle cx="18" cy="-78" r="6"/></g>
    <circle cx="0" cy="-44" r="62" fill="url(#bd)" stroke="#2c93cf" stroke-width="5"/>
    <polygon points="-12,-104 12,-104 0,-128" fill="#2c93cf"/>
    <circle cx="-22" cy="-52" r="13" fill="#fff"/><circle cx="22" cy="-52" r="13" fill="#fff"/>
    <circle cx="-20" cy="-54" r="6" fill="#16324a"/><circle cx="24" cy="-54" r="6" fill="#16324a"/>
  </g>
</svg>
